<?xml version="1.0" encoding="UTF-8" standalone="no"?>
<!DOCTYPE svg PUBLIC "-//W3C//DTD SVG 1.1//EN"
 "http://www.w3.org/Graphics/SVG/1.1/DTD/svg11.dtd">
<!-- Generated by graphviz version 2.40.1 (20161225.0304)
 -->
<!-- Title: %3 Pages: 1 -->
<svg width="2223pt" height="692pt"
 viewBox="0.00 0.00 2223.22 692.00" xmlns="http://www.w3.org/2000/svg" xmlns:xlink="http://www.w3.org/1999/xlink">
<g id="graph0" class="graph" transform="scale(1 1) rotate(0) translate(4 688)">
<title>%3</title>
<polygon fill="#ffffff" stroke="transparent" points="-4,4 -4,-688 2219.22,-688 2219.22,4 -4,4"/>
<!-- [root] aws_db_instance.hw_wordpress (expand) -->
<g id="node1" class="node">
<title>[root] aws_db_instance.hw_wordpress (expand)</title>
<polygon fill="none" stroke="#000000" points="1396.22,-396 1150.22,-396 1150.22,-360 1396.22,-360 1396.22,-396"/>
<text text-anchor="middle" x="1273.22" y="-374.3" font-family="Times,serif" font-size="14.00" fill="#000000">aws_db_instance.hw_wordpress</text>
</g>
<!-- [root] aws_db_subnet_group.hw_wp_db_grp (expand) -->
<g id="node2" class="node">
<title>[root] aws_db_subnet_group.hw_wp_db_grp (expand)</title>
<polygon fill="none" stroke="#000000" points="1675.72,-324 1388.72,-324 1388.72,-288 1675.72,-288 1675.72,-324"/>
<text text-anchor="middle" x="1532.22" y="-302.3" font-family="Times,serif" font-size="14.00" fill="#000000">aws_db_subnet_group.hw_wp_db_grp</text>
</g>
<!-- [root] aws_db_instance.hw_wordpress (expand)&#45;&gt;[root] aws_db_subnet_group.hw_wp_db_grp (expand) -->
<g id="edge1" class="edge">
<title>[root] aws_db_instance.hw_wordpress (expand)&#45;&gt;[root] aws_db_subnet_group.hw_wp_db_grp (expand)</title>
<path fill="none" stroke="#000000" d="M1338.2423,-359.9243C1374.4188,-349.8675 1419.6083,-337.3052 1457.2673,-326.8363"/>
<polygon fill="#000000" stroke="#000000" points="1458.4737,-330.1337 1467.1709,-324.0831 1456.5988,-323.3894 1458.4737,-330.1337"/>
</g>
<!-- [root] aws_security_group.hw_db_sg (expand) -->
<g id="node14" class="node">
<title>[root] aws_security_group.hw_db_sg (expand)</title>
<polygon fill="none" stroke="#000000" points="1257.72,-252 1022.72,-252 1022.72,-216 1257.72,-216 1257.72,-252"/>
<text text-anchor="middle" x="1140.22" y="-230.3" font-family="Times,serif" font-size="14.00" fill="#000000">aws_security_group.hw_db_sg</text>
</g>
<!-- [root] aws_db_instance.hw_wordpress (expand)&#45;&gt;[root] aws_security_group.hw_db_sg (expand) -->
<g id="edge2" class="edge">
<title>[root] aws_db_instance.hw_wordpress (expand)&#45;&gt;[root] aws_security_group.hw_db_sg (expand)</title>
<path fill="none" stroke="#000000" d="M1307.309,-359.9135C1320.4408,-351.0032 1334.0097,-338.9331 1341.22,-324 1348.1769,-309.5916 1350.956,-300.6969 1341.22,-288 1330.4929,-274.0107 1298.7418,-262.8404 1263.5521,-254.3727"/>
<polygon fill="#000000" stroke="#000000" points="1264.0821,-250.9028 1253.5502,-252.0559 1262.5024,-257.7223 1264.0821,-250.9028"/>
</g>
<!-- [root] var.my_db_name -->
<g id="node24" class="node">
<title>[root] var.my_db_name</title>
<polygon fill="none" stroke="#000000" points="1141.72,-324 1010.72,-324 1010.72,-288 1147.72,-288 1147.72,-318 1141.72,-324"/>
<polyline fill="none" stroke="#000000" points="1141.72,-324 1141.72,-318 "/>
<polyline fill="none" stroke="#000000" points="1147.72,-318 1141.72,-318 "/>
<text text-anchor="middle" x="1079.22" y="-302.3" font-family="Times,serif" font-size="14.00" fill="#000000">var.my_db_name</text>
</g>
<!-- [root] aws_db_instance.hw_wordpress (expand)&#45;&gt;[root] var.my_db_name -->
<g id="edge3" class="edge">
<title>[root] aws_db_instance.hw_wordpress (expand)&#45;&gt;[root] var.my_db_name</title>
<path fill="none" stroke="#000000" d="M1224.2656,-359.8314C1197.858,-350.0306 1165.0943,-337.8709 1137.3914,-327.5894"/>
<polygon fill="#000000" stroke="#000000" points="1138.4153,-324.2362 1127.8223,-324.038 1135.9797,-330.7988 1138.4153,-324.2362"/>
</g>
<!-- [root] var.my_db_password -->
<g id="node25" class="node">
<title>[root] var.my_db_password</title>
<polygon fill="none" stroke="#000000" points="1326.22,-324 1166.22,-324 1166.22,-288 1332.22,-288 1332.22,-318 1326.22,-324"/>
<polyline fill="none" stroke="#000000" points="1326.22,-324 1326.22,-318 "/>
<polyline fill="none" stroke="#000000" points="1332.22,-318 1326.22,-318 "/>
<text text-anchor="middle" x="1249.22" y="-302.3" font-family="Times,serif" font-size="14.00" fill="#000000">var.my_db_password</text>
</g>
<!-- [root] aws_db_instance.hw_wordpress (expand)&#45;&gt;[root] var.my_db_password -->
<g id="edge4" class="edge">
<title>[root] aws_db_instance.hw_wordpress (expand)&#45;&gt;[root] var.my_db_password</title>
<path fill="none" stroke="#000000" d="M1267.1638,-359.8314C1264.5688,-352.0463 1261.4776,-342.7729 1258.5982,-334.1347"/>
<polygon fill="#000000" stroke="#000000" points="1261.8405,-332.7933 1255.3577,-324.4133 1255.1997,-335.0069 1261.8405,-332.7933"/>
</g>
<!-- [root] var.my_db_user -->
<g id="node26" class="node">
<title>[root] var.my_db_user</title>
<polygon fill="none" stroke="#000000" points="986.72,-324 863.72,-324 863.72,-288 992.72,-288 992.72,-318 986.72,-324"/>
<polyline fill="none" stroke="#000000" points="986.72,-324 986.72,-318 "/>
<polyline fill="none" stroke="#000000" points="992.72,-318 986.72,-318 "/>
<text text-anchor="middle" x="928.22" y="-302.3" font-family="Times,serif" font-size="14.00" fill="#000000">var.my_db_user</text>
</g>
<!-- [root] aws_db_instance.hw_wordpress (expand)&#45;&gt;[root] var.my_db_user -->
<g id="edge5" class="edge">
<title>[root] aws_db_instance.hw_wordpress (expand)&#45;&gt;[root] var.my_db_user</title>
<path fill="none" stroke="#000000" d="M1177.6986,-359.9803C1128.2396,-350.4075 1066.6583,-338.1146 1002.6347,-324.0471"/>
<polygon fill="#000000" stroke="#000000" points="1003.2761,-320.6045 992.7568,-321.8668 1001.7673,-327.44 1003.2761,-320.6045"/>
</g>
<!-- [root] aws_subnet.hw_subnet1 (expand) -->
<g id="node18" class="node">
<title>[root] aws_subnet.hw_subnet1 (expand)</title>
<polygon fill="none" stroke="#000000" points="1466.72,-252 1275.72,-252 1275.72,-216 1466.72,-216 1466.72,-252"/>
<text text-anchor="middle" x="1371.22" y="-230.3" font-family="Times,serif" font-size="14.00" fill="#000000">aws_subnet.hw_subnet1</text>
</g>
<!-- [root] aws_db_subnet_group.hw_wp_db_grp (expand)&#45;&gt;[root] aws_subnet.hw_subnet1 (expand) -->
<g id="edge6" class="edge">
<title>[root] aws_db_subnet_group.hw_wp_db_grp (expand)&#45;&gt;[root] aws_subnet.hw_subnet1 (expand)</title>
<path fill="none" stroke="#000000" d="M1491.5929,-287.8314C1470.0601,-278.2018 1443.4351,-266.295 1420.7048,-256.1299"/>
<polygon fill="#000000" stroke="#000000" points="1422.1125,-252.9254 1411.5549,-252.038 1419.2548,-259.3155 1422.1125,-252.9254"/>
</g>
<!-- [root] aws_subnet.hw_subnet2 (expand) -->
<g id="node19" class="node">
<title>[root] aws_subnet.hw_subnet2 (expand)</title>
<polygon fill="none" stroke="#000000" points="1675.72,-252 1484.72,-252 1484.72,-216 1675.72,-216 1675.72,-252"/>
<text text-anchor="middle" x="1580.22" y="-230.3" font-family="Times,serif" font-size="14.00" fill="#000000">aws_subnet.hw_subnet2</text>
</g>
<!-- [root] aws_db_subnet_group.hw_wp_db_grp (expand)&#45;&gt;[root] aws_subnet.hw_subnet2 (expand) -->
<g id="edge7" class="edge">
<title>[root] aws_db_subnet_group.hw_wp_db_grp (expand)&#45;&gt;[root] aws_subnet.hw_subnet2 (expand)</title>
<path fill="none" stroke="#000000" d="M1544.3324,-287.8314C1549.7481,-279.7079 1556.2442,-269.9637 1562.2121,-261.0118"/>
<polygon fill="#000000" stroke="#000000" points="1565.3096,-262.6753 1567.9445,-252.4133 1559.4852,-258.7923 1565.3096,-262.6753"/>
</g>
<!-- [root] aws_efs_file_system.hw_wp_efs (expand) -->
<g id="node3" class="node">
<title>[root] aws_efs_file_system.hw_wp_efs (expand)</title>
<polygon fill="none" stroke="#000000" points="449.22,-252 205.22,-252 205.22,-216 449.22,-216 449.22,-252"/>
<text text-anchor="middle" x="327.22" y="-230.3" font-family="Times,serif" font-size="14.00" fill="#000000">aws_efs_file_system.hw_wp_efs</text>
</g>
<!-- [root] provider[&quot;registry.terraform.io/hashicorp/aws&quot;] -->
<g id="node21" class="node">
<title>[root] provider[&quot;registry.terraform.io/hashicorp/aws&quot;]</title>
<polygon fill="none" stroke="#000000" points="327.22,-108 -.2201,-90 327.22,-72 654.6601,-90 327.22,-108"/>
<text text-anchor="middle" x="327.22" y="-86.3" font-family="Times,serif" font-size="14.00" fill="#000000">provider[&quot;registry.terraform.io/hashicorp/aws&quot;]</text>
</g>
<!-- [root] aws_efs_file_system.hw_wp_efs (expand)&#45;&gt;[root] provider[&quot;registry.terraform.io/hashicorp/aws&quot;] -->
<g id="edge8" class="edge">
<title>[root] aws_efs_file_system.hw_wp_efs (expand)&#45;&gt;[root] provider[&quot;registry.terraform.io/hashicorp/aws&quot;]</title>
<path fill="none" stroke="#000000" d="M327.22,-215.7623C327.22,-191.201 327.22,-147.2474 327.22,-118.3541"/>
<polygon fill="#000000" stroke="#000000" points="330.7201,-118.0896 327.22,-108.0896 323.7201,-118.0897 330.7201,-118.0896"/>
</g>
<!-- [root] aws_efs_mount_target.hw_wp_efs_mnt1 (expand) -->
<g id="node4" class="node">
<title>[root] aws_efs_mount_target.hw_wp_efs_mnt1 (expand)</title>
<polygon fill="none" stroke="#000000" points="373.72,-324 68.72,-324 68.72,-288 373.72,-288 373.72,-324"/>
<text text-anchor="middle" x="221.22" y="-302.3" font-family="Times,serif" font-size="14.00" fill="#000000">aws_efs_mount_target.hw_wp_efs_mnt1</text>
</g>
<!-- [root] aws_efs_mount_target.hw_wp_efs_mnt1 (expand)&#45;&gt;[root] aws_efs_file_system.hw_wp_efs (expand) -->
<g id="edge9" class="edge">
<title>[root] aws_efs_mount_target.hw_wp_efs_mnt1 (expand)&#45;&gt;[root] aws_efs_file_system.hw_wp_efs (expand)</title>
<path fill="none" stroke="#000000" d="M247.9683,-287.8314C261.2752,-278.7927 277.536,-267.7476 291.8575,-258.0198"/>
<polygon fill="#000000" stroke="#000000" points="294.1747,-260.677 300.4803,-252.1628 290.2415,-254.8864 294.1747,-260.677"/>
</g>
<!-- [root] aws_security_group.hw_efs_sg (expand) -->
<g id="node15" class="node">
<title>[root] aws_security_group.hw_efs_sg (expand)</title>
<polygon fill="none" stroke="#000000" points="812.22,-252 574.22,-252 574.22,-216 812.22,-216 812.22,-252"/>
<text text-anchor="middle" x="693.22" y="-230.3" font-family="Times,serif" font-size="14.00" fill="#000000">aws_security_group.hw_efs_sg</text>
</g>
<!-- [root] aws_efs_mount_target.hw_wp_efs_mnt1 (expand)&#45;&gt;[root] aws_security_group.hw_efs_sg (expand) -->
<g id="edge10" class="edge">
<title>[root] aws_efs_mount_target.hw_wp_efs_mnt1 (expand)&#45;&gt;[root] aws_security_group.hw_efs_sg (expand)</title>
<path fill="none" stroke="#000000" d="M339.412,-287.9707C407.992,-277.5094 494.4228,-264.325 564.6907,-253.6062"/>
<polygon fill="#000000" stroke="#000000" points="565.5789,-257.0112 574.9368,-252.0432 564.5233,-250.0913 565.5789,-257.0112"/>
</g>
<!-- [root] aws_efs_mount_target.hw_wp_efs_mnt1 (expand)&#45;&gt;[root] aws_subnet.hw_subnet1 (expand) -->
<g id="edge11" class="edge">
<title>[root] aws_efs_mount_target.hw_wp_efs_mnt1 (expand)&#45;&gt;[root] aws_subnet.hw_subnet1 (expand)</title>
<path fill="none" stroke="#000000" d="M373.7333,-288.6718C376.5845,-288.4379 379.4155,-288.2135 382.22,-288 771.3883,-258.3672 874.0237,-293.0538 1265.3338,-252.1238"/>
<polygon fill="#000000" stroke="#000000" points="1265.9389,-255.5794 1275.5161,-251.0485 1265.2038,-248.6181 1265.9389,-255.5794"/>
</g>
<!-- [root] aws_efs_mount_target.hw_wp_efs_mnt2 (expand) -->
<g id="node5" class="node">
<title>[root] aws_efs_mount_target.hw_wp_efs_mnt2 (expand)</title>
<polygon fill="none" stroke="#000000" points="845.72,-324 540.72,-324 540.72,-288 845.72,-288 845.72,-324"/>
<text text-anchor="middle" x="693.22" y="-302.3" font-family="Times,serif" font-size="14.00" fill="#000000">aws_efs_mount_target.hw_wp_efs_mnt2</text>
</g>
<!-- [root] aws_efs_mount_target.hw_wp_efs_mnt2 (expand)&#45;&gt;[root] aws_efs_file_system.hw_wp_efs (expand) -->
<g id="edge12" class="edge">
<title>[root] aws_efs_mount_target.hw_wp_efs_mnt2 (expand)&#45;&gt;[root] aws_efs_file_system.hw_wp_efs (expand)</title>
<path fill="none" stroke="#000000" d="M601.3352,-287.9243C548.8082,-277.5911 482.8351,-264.6128 428.7748,-253.978"/>
<polygon fill="#000000" stroke="#000000" points="429.3127,-250.5168 418.8251,-252.0207 427.9615,-257.3852 429.3127,-250.5168"/>
</g>
<!-- [root] aws_efs_mount_target.hw_wp_efs_mnt2 (expand)&#45;&gt;[root] aws_security_group.hw_efs_sg (expand) -->
<g id="edge13" class="edge">
<title>[root] aws_efs_mount_target.hw_wp_efs_mnt2 (expand)&#45;&gt;[root] aws_security_group.hw_efs_sg (expand)</title>
<path fill="none" stroke="#000000" d="M693.22,-287.8314C693.22,-280.131 693.22,-270.9743 693.22,-262.4166"/>
<polygon fill="#000000" stroke="#000000" points="696.7201,-262.4132 693.22,-252.4133 689.7201,-262.4133 696.7201,-262.4132"/>
</g>
<!-- [root] aws_efs_mount_target.hw_wp_efs_mnt2 (expand)&#45;&gt;[root] aws_subnet.hw_subnet2 (expand) -->
<g id="edge14" class="edge">
<title>[root] aws_efs_mount_target.hw_wp_efs_mnt2 (expand)&#45;&gt;[root] aws_subnet.hw_subnet2 (expand)</title>
<path fill="none" stroke="#000000" d="M845.8256,-288.8169C848.984,-288.5348 852.1182,-288.262 855.22,-288 1127.3392,-265.0109 1199.8107,-283.17 1474.2417,-252.1583"/>
<polygon fill="#000000" stroke="#000000" points="1474.9708,-255.5979 1484.5091,-250.9859 1474.1766,-248.6431 1474.9708,-255.5979"/>
</g>
<!-- [root] aws_elb.hw_wp_elb (expand) -->
<g id="node6" class="node">
<title>[root] aws_elb.hw_wp_elb (expand)</title>
<polygon fill="none" stroke="#000000" points="1438.72,-540 1281.72,-540 1281.72,-504 1438.72,-504 1438.72,-540"/>
<text text-anchor="middle" x="1360.22" y="-518.3" font-family="Times,serif" font-size="14.00" fill="#000000">aws_elb.hw_wp_elb</text>
</g>
<!-- [root] aws_instance.hw_wordpress1 (expand) -->
<g id="node7" class="node">
<title>[root] aws_instance.hw_wordpress1 (expand)</title>
<polygon fill="none" stroke="#000000" points="887.22,-468 657.22,-468 657.22,-432 887.22,-432 887.22,-468"/>
<text text-anchor="middle" x="772.22" y="-446.3" font-family="Times,serif" font-size="14.00" fill="#000000">aws_instance.hw_wordpress1</text>
</g>
<!-- [root] aws_elb.hw_wp_elb (expand)&#45;&gt;[root] aws_instance.hw_wordpress1 (expand) -->
<g id="edge15" class="edge">
<title>[root] aws_elb.hw_wp_elb (expand)&#45;&gt;[root] aws_instance.hw_wordpress1 (expand)</title>
<path fill="none" stroke="#000000" d="M1281.5298,-512.3645C1183.1612,-500.3193 1013.6062,-479.5575 897.3512,-465.3222"/>
<polygon fill="#000000" stroke="#000000" points="897.6763,-461.8359 887.3251,-464.0945 896.8255,-468.784 897.6763,-461.8359"/>
</g>
<!-- [root] aws_instance.hw_wordpress2 (expand) -->
<g id="node8" class="node">
<title>[root] aws_instance.hw_wordpress2 (expand)</title>
<polygon fill="none" stroke="#000000" points="1175.22,-468 945.22,-468 945.22,-432 1175.22,-432 1175.22,-468"/>
<text text-anchor="middle" x="1060.22" y="-446.3" font-family="Times,serif" font-size="14.00" fill="#000000">aws_instance.hw_wordpress2</text>
</g>
<!-- [root] aws_elb.hw_wp_elb (expand)&#45;&gt;[root] aws_instance.hw_wordpress2 (expand) -->
<g id="edge16" class="edge">
<title>[root] aws_elb.hw_wp_elb (expand)&#45;&gt;[root] aws_instance.hw_wordpress2 (expand)</title>
<path fill="none" stroke="#000000" d="M1284.9045,-503.9243C1242.3856,-493.7198 1189.1179,-480.9355 1145.1209,-470.3762"/>
<polygon fill="#000000" stroke="#000000" points="1145.8469,-466.9511 1135.3062,-468.0207 1144.2132,-473.7578 1145.8469,-466.9511"/>
</g>
<!-- [root] aws_security_group.sg_wp_elb (expand) -->
<g id="node17" class="node">
<title>[root] aws_security_group.sg_wp_elb (expand)</title>
<polygon fill="none" stroke="#000000" points="1558.72,-468 1319.72,-468 1319.72,-432 1558.72,-432 1558.72,-468"/>
<text text-anchor="middle" x="1439.22" y="-446.3" font-family="Times,serif" font-size="14.00" fill="#000000">aws_security_group.sg_wp_elb</text>
</g>
<!-- [root] aws_elb.hw_wp_elb (expand)&#45;&gt;[root] aws_security_group.sg_wp_elb (expand) -->
<g id="edge17" class="edge">
<title>[root] aws_elb.hw_wp_elb (expand)&#45;&gt;[root] aws_security_group.sg_wp_elb (expand)</title>
<path fill="none" stroke="#000000" d="M1380.155,-503.8314C1389.6982,-495.1337 1401.2799,-484.5783 1411.6506,-475.1265"/>
<polygon fill="#000000" stroke="#000000" points="1414.258,-477.4857 1419.2913,-468.1628 1409.5427,-472.3121 1414.258,-477.4857"/>
</g>
<!-- [root] aws_instance.hw_wordpress1 (expand)&#45;&gt;[root] aws_db_instance.hw_wordpress (expand) -->
<g id="edge18" class="edge">
<title>[root] aws_instance.hw_wordpress1 (expand)&#45;&gt;[root] aws_db_instance.hw_wordpress (expand)</title>
<path fill="none" stroke="#000000" d="M887.4739,-433.4366C962.841,-422.6054 1061.5354,-408.4217 1140.2268,-397.1128"/>
<polygon fill="#000000" stroke="#000000" points="1140.8101,-400.565 1150.2105,-395.678 1139.8143,-393.6362 1140.8101,-400.565"/>
</g>
<!-- [root] aws_instance.hw_wordpress1 (expand)&#45;&gt;[root] aws_efs_mount_target.hw_wp_efs_mnt1 (expand) -->
<g id="edge19" class="edge">
<title>[root] aws_instance.hw_wordpress1 (expand)&#45;&gt;[root] aws_efs_mount_target.hw_wp_efs_mnt1 (expand)</title>
<path fill="none" stroke="#000000" d="M657.1101,-446.9008C503.1812,-441.5478 246.1697,-427.9031 217.22,-396 202.2732,-379.5283 205.167,-353.5837 210.6926,-333.7738"/>
<polygon fill="#000000" stroke="#000000" points="214.0872,-334.6456 213.7414,-324.0564 207.4082,-332.55 214.0872,-334.6456"/>
</g>
<!-- [root] aws_key_pair.hw_access (expand) -->
<g id="node10" class="node">
<title>[root] aws_key_pair.hw_access (expand)</title>
<polygon fill="none" stroke="#000000" points="1093.72,-396 900.72,-396 900.72,-360 1093.72,-360 1093.72,-396"/>
<text text-anchor="middle" x="997.22" y="-374.3" font-family="Times,serif" font-size="14.00" fill="#000000">aws_key_pair.hw_access</text>
</g>
<!-- [root] aws_instance.hw_wordpress1 (expand)&#45;&gt;[root] aws_key_pair.hw_access (expand) -->
<g id="edge20" class="edge">
<title>[root] aws_instance.hw_wordpress1 (expand)&#45;&gt;[root] aws_key_pair.hw_access (expand)</title>
<path fill="none" stroke="#000000" d="M828.7066,-431.9243C859.7328,-421.9959 898.3903,-409.6255 930.8506,-399.2382"/>
<polygon fill="#000000" stroke="#000000" points="932.2527,-402.4645 940.7102,-396.0831 930.1192,-395.7975 932.2527,-402.4645"/>
</g>
<!-- [root] aws_security_group.hw_sg (expand) -->
<g id="node16" class="node">
<title>[root] aws_security_group.hw_sg (expand)</title>
<polygon fill="none" stroke="#000000" points="1623.72,-396 1414.72,-396 1414.72,-360 1623.72,-360 1623.72,-396"/>
<text text-anchor="middle" x="1519.22" y="-374.3" font-family="Times,serif" font-size="14.00" fill="#000000">aws_security_group.hw_sg</text>
</g>
<!-- [root] aws_instance.hw_wordpress1 (expand)&#45;&gt;[root] aws_security_group.hw_sg (expand) -->
<g id="edge21" class="edge">
<title>[root] aws_instance.hw_wordpress1 (expand)&#45;&gt;[root] aws_security_group.hw_sg (expand)</title>
<path fill="none" stroke="#000000" d="M887.3101,-436.8869C903.7182,-435.1576 920.3916,-433.4757 936.22,-432 1141.1225,-412.8964 1195.8815,-420.0871 1404.5368,-396.0231"/>
<polygon fill="#000000" stroke="#000000" points="1405.0619,-399.4857 1414.5903,-394.8534 1404.2528,-392.5326 1405.0619,-399.4857"/>
</g>
<!-- [root] var.ami_packer_name -->
<g id="node22" class="node">
<title>[root] var.ami_packer_name</title>
<polygon fill="none" stroke="#000000" points="555.72,-396 388.72,-396 388.72,-360 561.72,-360 561.72,-390 555.72,-396"/>
<polyline fill="none" stroke="#000000" points="555.72,-396 555.72,-390 "/>
<polyline fill="none" stroke="#000000" points="561.72,-390 555.72,-390 "/>
<text text-anchor="middle" x="475.22" y="-374.3" font-family="Times,serif" font-size="14.00" fill="#000000">var.ami_packer_name</text>
</g>
<!-- [root] aws_instance.hw_wordpress1 (expand)&#45;&gt;[root] var.ami_packer_name -->
<g id="edge23" class="edge">
<title>[root] aws_instance.hw_wordpress1 (expand)&#45;&gt;[root] var.ami_packer_name</title>
<path fill="none" stroke="#000000" d="M697.6577,-431.9243C655.6524,-421.7412 603.0505,-408.9892 559.5466,-398.4428"/>
<polygon fill="#000000" stroke="#000000" points="560.0984,-394.9753 549.5553,-396.0207 558.4492,-401.7782 560.0984,-394.9753"/>
</g>
<!-- [root] var.priv_key_path -->
<g id="node27" class="node">
<title>[root] var.priv_key_path</title>
<polygon fill="none" stroke="#000000" points="364.22,-396 226.22,-396 226.22,-360 370.22,-360 370.22,-390 364.22,-396"/>
<polyline fill="none" stroke="#000000" points="364.22,-396 364.22,-390 "/>
<polyline fill="none" stroke="#000000" points="370.22,-390 364.22,-390 "/>
<text text-anchor="middle" x="298.22" y="-374.3" font-family="Times,serif" font-size="14.00" fill="#000000">var.priv_key_path</text>
</g>
<!-- [root] aws_instance.hw_wordpress1 (expand)&#45;&gt;[root] var.priv_key_path -->
<g id="edge24" class="edge">
<title>[root] aws_instance.hw_wordpress1 (expand)&#45;&gt;[root] var.priv_key_path</title>
<path fill="none" stroke="#000000" d="M657.0406,-436.702C581.1052,-427.3367 479.2819,-413.6458 380.7256,-396.2004"/>
<polygon fill="#000000" stroke="#000000" points="381.0436,-392.7019 370.5841,-394.3898 379.8132,-399.593 381.0436,-392.7019"/>
</g>
<!-- [root] provisioner.remote&#45;exec -->
<g id="node30" class="node">
<title>[root] provisioner.remote&#45;exec</title>
<ellipse fill="none" stroke="#000000" cx="731.22" cy="-378" rx="151.3732" ry="18"/>
<text text-anchor="middle" x="731.22" y="-374.3" font-family="Times,serif" font-size="14.00" fill="#000000">[root] provisioner.remote&#45;exec</text>
</g>
<!-- [root] aws_instance.hw_wordpress1 (expand)&#45;&gt;[root] provisioner.remote&#45;exec -->
<g id="edge22" class="edge">
<title>[root] aws_instance.hw_wordpress1 (expand)&#45;&gt;[root] provisioner.remote&#45;exec</title>
<path fill="none" stroke="#000000" d="M761.874,-431.8314C757.2963,-423.7925 751.8148,-414.1666 746.7611,-405.2918"/>
<polygon fill="#000000" stroke="#000000" points="749.6952,-403.3712 741.7053,-396.4133 743.6123,-406.8351 749.6952,-403.3712"/>
</g>
<!-- [root] aws_instance.hw_wordpress2 (expand)&#45;&gt;[root] aws_db_instance.hw_wordpress (expand) -->
<g id="edge25" class="edge">
<title>[root] aws_instance.hw_wordpress2 (expand)&#45;&gt;[root] aws_db_instance.hw_wordpress (expand)</title>
<path fill="none" stroke="#000000" d="M1113.6939,-431.9243C1142.9389,-422.0387 1179.3459,-409.7321 1209.9926,-399.3726"/>
<polygon fill="#000000" stroke="#000000" points="1211.3714,-402.6012 1219.724,-396.0831 1209.1298,-395.9698 1211.3714,-402.6012"/>
</g>
<!-- [root] aws_instance.hw_wordpress2 (expand)&#45;&gt;[root] aws_efs_mount_target.hw_wp_efs_mnt2 (expand) -->
<g id="edge26" class="edge">
<title>[root] aws_instance.hw_wordpress2 (expand)&#45;&gt;[root] aws_efs_mount_target.hw_wp_efs_mnt2 (expand)</title>
<path fill="none" stroke="#000000" d="M1080.1437,-431.7568C1099.031,-412.2831 1121.9445,-381.3524 1103.22,-360 1098.9409,-355.1204 968.6242,-338.5176 856.0532,-324.996"/>
<polygon fill="#000000" stroke="#000000" points="856.2586,-321.4956 845.9131,-323.7805 855.4254,-328.4459 856.2586,-321.4956"/>
</g>
<!-- [root] aws_instance.hw_wordpress2 (expand)&#45;&gt;[root] aws_key_pair.hw_access (expand) -->
<g id="edge27" class="edge">
<title>[root] aws_instance.hw_wordpress2 (expand)&#45;&gt;[root] aws_key_pair.hw_access (expand)</title>
<path fill="none" stroke="#000000" d="M1044.3224,-431.8314C1036.9922,-423.454 1028.154,-413.3531 1020.1231,-404.1749"/>
<polygon fill="#000000" stroke="#000000" points="1022.5507,-401.6343 1013.3316,-396.4133 1017.2826,-406.2438 1022.5507,-401.6343"/>
</g>
<!-- [root] aws_instance.hw_wordpress2 (expand)&#45;&gt;[root] aws_security_group.hw_sg (expand) -->
<g id="edge28" class="edge">
<title>[root] aws_instance.hw_wordpress2 (expand)&#45;&gt;[root] aws_security_group.hw_sg (expand)</title>
<path fill="none" stroke="#000000" d="M1175.226,-432.0385C1239.6909,-421.961 1321.8523,-409.1014 1404.47,-396.1169"/>
<polygon fill="#000000" stroke="#000000" points="1405.2112,-399.5435 1414.5464,-394.533 1404.1242,-392.6284 1405.2112,-399.5435"/>
</g>
<!-- [root] aws_instance.hw_wordpress2 (expand)&#45;&gt;[root] var.ami_packer_name -->
<g id="edge30" class="edge">
<title>[root] aws_instance.hw_wordpress2 (expand)&#45;&gt;[root] var.ami_packer_name</title>
<path fill="none" stroke="#000000" d="M945.1078,-437.3416C816.2603,-423.166 620.0671,-401.5581 571.9992,-395.8273"/>
<polygon fill="#000000" stroke="#000000" points="572.1354,-392.3169 561.7764,-394.5398 571.2607,-399.262 572.1354,-392.3169"/>
</g>
<!-- [root] aws_instance.hw_wordpress2 (expand)&#45;&gt;[root] var.priv_key_path -->
<g id="edge31" class="edge">
<title>[root] aws_instance.hw_wordpress2 (expand)&#45;&gt;[root] var.priv_key_path</title>
<path fill="none" stroke="#000000" d="M945.1393,-436.7836C928.7298,-435.0697 912.0534,-433.4196 896.22,-432 670.0546,-411.7224 608.8901,-428.5832 380.491,-396.0648"/>
<polygon fill="#000000" stroke="#000000" points="380.9414,-392.5937 370.5446,-394.6328 379.9438,-399.5222 380.9414,-392.5937"/>
</g>
<!-- [root] aws_instance.hw_wordpress2 (expand)&#45;&gt;[root] provisioner.remote&#45;exec -->
<g id="edge29" class="edge">
<title>[root] aws_instance.hw_wordpress2 (expand)&#45;&gt;[root] provisioner.remote&#45;exec</title>
<path fill="none" stroke="#000000" d="M977.6241,-431.9243C927.4803,-420.9506 863.7047,-406.9936 813.6002,-396.0285"/>
<polygon fill="#000000" stroke="#000000" points="814.2867,-392.596 803.7696,-393.8771 812.7901,-399.4341 814.2867,-392.596"/>
</g>
<!-- [root] aws_internet_gateway.hw_igw (expand) -->
<g id="node9" class="node">
<title>[root] aws_internet_gateway.hw_igw (expand)</title>
<polygon fill="none" stroke="#000000" points="2080.22,-252 1846.22,-252 1846.22,-216 2080.22,-216 2080.22,-252"/>
<text text-anchor="middle" x="1963.22" y="-230.3" font-family="Times,serif" font-size="14.00" fill="#000000">aws_internet_gateway.hw_igw</text>
</g>
<!-- [root] aws_vpc.hw_vpc (expand) -->
<g id="node20" class="node">
<title>[root] aws_vpc.hw_vpc (expand)</title>
<polygon fill="none" stroke="#000000" points="1543.22,-180 1407.22,-180 1407.22,-144 1543.22,-144 1543.22,-180"/>
<text text-anchor="middle" x="1475.22" y="-158.3" font-family="Times,serif" font-size="14.00" fill="#000000">aws_vpc.hw_vpc</text>
</g>
<!-- [root] aws_internet_gateway.hw_igw (expand)&#45;&gt;[root] aws_vpc.hw_vpc (expand) -->
<g id="edge32" class="edge">
<title>[root] aws_internet_gateway.hw_igw (expand)&#45;&gt;[root] aws_vpc.hw_vpc (expand)</title>
<path fill="none" stroke="#000000" d="M1846.0214,-216.7084C1755.4752,-203.3491 1632.6679,-185.23 1553.6721,-173.5749"/>
<polygon fill="#000000" stroke="#000000" points="1553.7075,-170.0423 1543.3037,-172.0451 1552.6857,-176.9673 1553.7075,-170.0423"/>
</g>
<!-- [root] aws_key_pair.hw_access (expand)&#45;&gt;[root] provider[&quot;registry.terraform.io/hashicorp/aws&quot;] -->
<g id="edge33" class="edge">
<title>[root] aws_key_pair.hw_access (expand)&#45;&gt;[root] provider[&quot;registry.terraform.io/hashicorp/aws&quot;]</title>
<path fill="none" stroke="#000000" d="M900.5262,-361.0681C897.391,-360.6829 894.2827,-360.325 891.22,-360 845.2128,-355.1177 91.2197,-357.4143 59.22,-324 -23.7604,-237.3515 173.4574,-147.4819 273.4541,-109.1599"/>
<polygon fill="#000000" stroke="#000000" points="274.7033,-112.4295 282.815,-105.6141 272.2236,-105.8834 274.7033,-112.4295"/>
</g>
<!-- [root] var.ssh_rsa_pub -->
<g id="node29" class="node">
<title>[root] var.ssh_rsa_pub</title>
<polygon fill="none" stroke="#000000" points="516.72,-324 391.72,-324 391.72,-288 522.72,-288 522.72,-318 516.72,-324"/>
<polyline fill="none" stroke="#000000" points="516.72,-324 516.72,-318 "/>
<polyline fill="none" stroke="#000000" points="522.72,-318 516.72,-318 "/>
<text text-anchor="middle" x="457.22" y="-302.3" font-family="Times,serif" font-size="14.00" fill="#000000">var.ssh_rsa_pub</text>
</g>
<!-- [root] aws_key_pair.hw_access (expand)&#45;&gt;[root] var.ssh_rsa_pub -->
<g id="edge34" class="edge">
<title>[root] aws_key_pair.hw_access (expand)&#45;&gt;[root] var.ssh_rsa_pub</title>
<path fill="none" stroke="#000000" d="M900.4989,-361.2946C897.3715,-360.8443 894.2723,-360.4113 891.22,-360 735.1302,-338.9678 691.5011,-350.5677 532.9978,-324.1828"/>
<polygon fill="#000000" stroke="#000000" points="533.3321,-320.6898 522.8888,-322.4749 532.166,-327.592 533.3321,-320.6898"/>
</g>
<!-- [root] aws_route_table.hw_rt (expand) -->
<g id="node11" class="node">
<title>[root] aws_route_table.hw_rt (expand)</title>
<polygon fill="none" stroke="#000000" points="1872.72,-468 1693.72,-468 1693.72,-432 1872.72,-432 1872.72,-468"/>
<text text-anchor="middle" x="1783.22" y="-446.3" font-family="Times,serif" font-size="14.00" fill="#000000">aws_route_table.hw_rt</text>
</g>
<!-- [root] aws_route_table.hw_rt (expand)&#45;&gt;[root] aws_internet_gateway.hw_igw (expand) -->
<g id="edge35" class="edge">
<title>[root] aws_route_table.hw_rt (expand)&#45;&gt;[root] aws_internet_gateway.hw_igw (expand)</title>
<path fill="none" stroke="#000000" d="M1800.2652,-431.7378C1809.8093,-421.3833 1821.8416,-408.1126 1832.22,-396 1872.4024,-349.1029 1917.2583,-292.6992 1942.679,-260.3316"/>
<polygon fill="#000000" stroke="#000000" points="1945.5961,-262.2835 1949.0111,-252.2541 1940.087,-257.9648 1945.5961,-262.2835"/>
</g>
<!-- [root] aws_route_table_association.subnet1 (expand) -->
<g id="node12" class="node">
<title>[root] aws_route_table_association.subnet1 (expand)</title>
<polygon fill="none" stroke="#000000" points="1741.22,-540 1457.22,-540 1457.22,-504 1741.22,-504 1741.22,-540"/>
<text text-anchor="middle" x="1599.22" y="-518.3" font-family="Times,serif" font-size="14.00" fill="#000000">aws_route_table_association.subnet1</text>
</g>
<!-- [root] aws_route_table_association.subnet1 (expand)&#45;&gt;[root] aws_route_table.hw_rt (expand) -->
<g id="edge36" class="edge">
<title>[root] aws_route_table_association.subnet1 (expand)&#45;&gt;[root] aws_route_table.hw_rt (expand)</title>
<path fill="none" stroke="#000000" d="M1645.651,-503.8314C1670.588,-494.0734 1701.5009,-481.977 1727.7026,-471.7242"/>
<polygon fill="#000000" stroke="#000000" points="1729.0859,-474.9414 1737.1229,-468.038 1726.535,-468.4227 1729.0859,-474.9414"/>
</g>
<!-- [root] aws_route_table_association.subnet1 (expand)&#45;&gt;[root] aws_subnet.hw_subnet1 (expand) -->
<g id="edge37" class="edge">
<title>[root] aws_route_table_association.subnet1 (expand)&#45;&gt;[root] aws_subnet.hw_subnet1 (expand)</title>
<path fill="none" stroke="#000000" d="M1616.895,-503.767C1655.8685,-461.3681 1741.4203,-354.6903 1685.22,-288 1685.1113,-287.871 1568.316,-267.8094 1477.2199,-252.1789"/>
<polygon fill="#000000" stroke="#000000" points="1477.5388,-248.6826 1467.0909,-250.4411 1476.355,-255.5818 1477.5388,-248.6826"/>
</g>
<!-- [root] aws_route_table_association.subnet2 (expand) -->
<g id="node13" class="node">
<title>[root] aws_route_table_association.subnet2 (expand)</title>
<polygon fill="none" stroke="#000000" points="2043.22,-540 1759.22,-540 1759.22,-504 2043.22,-504 2043.22,-540"/>
<text text-anchor="middle" x="1901.22" y="-518.3" font-family="Times,serif" font-size="14.00" fill="#000000">aws_route_table_association.subnet2</text>
</g>
<!-- [root] aws_route_table_association.subnet2 (expand)&#45;&gt;[root] aws_route_table.hw_rt (expand) -->
<g id="edge38" class="edge">
<title>[root] aws_route_table_association.subnet2 (expand)&#45;&gt;[root] aws_route_table.hw_rt (expand)</title>
<path fill="none" stroke="#000000" d="M1871.4436,-503.8314C1856.3507,-494.6221 1837.8443,-483.3301 1821.6857,-473.4706"/>
<polygon fill="#000000" stroke="#000000" points="1823.3463,-470.3838 1812.9868,-468.1628 1819.7002,-476.3593 1823.3463,-470.3838"/>
</g>
<!-- [root] aws_route_table_association.subnet2 (expand)&#45;&gt;[root] aws_subnet.hw_subnet2 (expand) -->
<g id="edge39" class="edge">
<title>[root] aws_route_table_association.subnet2 (expand)&#45;&gt;[root] aws_subnet.hw_subnet2 (expand)</title>
<path fill="none" stroke="#000000" d="M1900.8635,-503.809C1899.73,-484.658 1895.7181,-454.2568 1882.22,-432 1827.3041,-341.4501 1713.3756,-284.1911 1642.2197,-255.7134"/>
<polygon fill="#000000" stroke="#000000" points="1643.4906,-252.4523 1632.9034,-252.0513 1640.9297,-258.9671 1643.4906,-252.4523"/>
</g>
<!-- [root] aws_security_group.hw_db_sg (expand)&#45;&gt;[root] aws_vpc.hw_vpc (expand) -->
<g id="edge40" class="edge">
<title>[root] aws_security_group.hw_db_sg (expand)&#45;&gt;[root] aws_vpc.hw_vpc (expand)</title>
<path fill="none" stroke="#000000" d="M1224.3222,-215.9243C1277.3987,-204.5168 1345.4745,-189.8856 1397.3204,-178.7426"/>
<polygon fill="#000000" stroke="#000000" points="1398.0928,-182.1566 1407.134,-176.6334 1396.6218,-175.3129 1398.0928,-182.1566"/>
</g>
<!-- [root] aws_security_group.hw_efs_sg (expand)&#45;&gt;[root] aws_vpc.hw_vpc (expand) -->
<g id="edge41" class="edge">
<title>[root] aws_security_group.hw_efs_sg (expand)&#45;&gt;[root] aws_vpc.hw_vpc (expand)</title>
<path fill="none" stroke="#000000" d="M812.4143,-223.0256C974.4672,-208.1051 1259.8076,-181.8334 1397.1015,-169.1925"/>
<polygon fill="#000000" stroke="#000000" points="1397.4894,-172.6717 1407.1264,-168.2695 1396.8476,-165.7012 1397.4894,-172.6717"/>
</g>
<!-- [root] aws_security_group.hw_sg (expand)&#45;&gt;[root] aws_vpc.hw_vpc (expand) -->
<g id="edge42" class="edge">
<title>[root] aws_security_group.hw_sg (expand)&#45;&gt;[root] aws_vpc.hw_vpc (expand)</title>
<path fill="none" stroke="#000000" d="M1604.59,-359.9747C1639.8388,-350.643 1674.8907,-338.2222 1685.22,-324 1713.427,-285.1623 1714.6326,-253.9328 1685.22,-216 1668.8588,-194.8994 1606.1473,-180.6025 1553.4777,-172.0482"/>
<polygon fill="#000000" stroke="#000000" points="1553.8573,-168.5649 1543.4344,-170.4655 1552.7676,-175.4795 1553.8573,-168.5649"/>
</g>
<!-- [root] aws_security_group.sg_wp_elb (expand)&#45;&gt;[root] aws_vpc.hw_vpc (expand) -->
<g id="edge43" class="edge">
<title>[root] aws_security_group.sg_wp_elb (expand)&#45;&gt;[root] aws_vpc.hw_vpc (expand)</title>
<path fill="none" stroke="#000000" d="M1556.4478,-431.9636C1616.6585,-415.4825 1682.6413,-384.0132 1708.22,-324 1727.0403,-279.8435 1738.0848,-253.5778 1708.22,-216 1689.0179,-191.8387 1613.5546,-177.5293 1553.6424,-169.7771"/>
<polygon fill="#000000" stroke="#000000" points="1553.7717,-166.266 1543.4144,-168.4969 1552.9023,-173.2118 1553.7717,-166.266"/>
</g>
<!-- [root] aws_subnet.hw_subnet1 (expand)&#45;&gt;[root] aws_vpc.hw_vpc (expand) -->
<g id="edge44" class="edge">
<title>[root] aws_subnet.hw_subnet1 (expand)&#45;&gt;[root] aws_vpc.hw_vpc (expand)</title>
<path fill="none" stroke="#000000" d="M1397.4636,-215.8314C1410.5195,-206.7927 1426.4734,-195.7476 1440.5247,-186.0198"/>
<polygon fill="#000000" stroke="#000000" points="1442.7551,-188.7326 1448.9848,-180.1628 1438.7706,-182.9773 1442.7551,-188.7326"/>
</g>
<!-- [root] aws_subnet.hw_subnet2 (expand)&#45;&gt;[root] aws_vpc.hw_vpc (expand) -->
<g id="edge45" class="edge">
<title>[root] aws_subnet.hw_subnet2 (expand)&#45;&gt;[root] aws_vpc.hw_vpc (expand)</title>
<path fill="none" stroke="#000000" d="M1553.7241,-215.8314C1540.5426,-206.7927 1524.4352,-195.7476 1510.2489,-186.0198"/>
<polygon fill="#000000" stroke="#000000" points="1511.9341,-182.9316 1501.7074,-180.1628 1507.9754,-188.7047 1511.9341,-182.9316"/>
</g>
<!-- [root] aws_vpc.hw_vpc (expand)&#45;&gt;[root] provider[&quot;registry.terraform.io/hashicorp/aws&quot;] -->
<g id="edge46" class="edge">
<title>[root] aws_vpc.hw_vpc (expand)&#45;&gt;[root] provider[&quot;registry.terraform.io/hashicorp/aws&quot;]</title>
<path fill="none" stroke="#000000" d="M1406.8453,-157.7117C1228.5759,-146.531 745.7528,-116.2494 490.4917,-100.24"/>
<polygon fill="#000000" stroke="#000000" points="490.5837,-96.739 480.3842,-99.6061 490.1455,-103.7253 490.5837,-96.739"/>
</g>
<!-- [root] var.region -->
<g id="node28" class="node">
<title>[root] var.region</title>
<polygon fill="none" stroke="#000000" points="365.72,-36 282.72,-36 282.72,0 371.72,0 371.72,-30 365.72,-36"/>
<polyline fill="none" stroke="#000000" points="365.72,-36 365.72,-30 "/>
<polyline fill="none" stroke="#000000" points="371.72,-30 365.72,-30 "/>
<text text-anchor="middle" x="327.22" y="-14.3" font-family="Times,serif" font-size="14.00" fill="#000000">var.region</text>
</g>
<!-- [root] provider[&quot;registry.terraform.io/hashicorp/aws&quot;]&#45;&gt;[root] var.region -->
<g id="edge54" class="edge">
<title>[root] provider[&quot;registry.terraform.io/hashicorp/aws&quot;]&#45;&gt;[root] var.region</title>
<path fill="none" stroke="#000000" d="M327.22,-71.8314C327.22,-64.131 327.22,-54.9743 327.22,-46.4166"/>
<polygon fill="#000000" stroke="#000000" points="330.7201,-46.4132 327.22,-36.4133 323.7201,-46.4133 330.7201,-46.4132"/>
</g>
<!-- [root] var.my_db_address -->
<g id="node23" class="node">
<title>[root] var.my_db_address</title>
<polygon fill="none" stroke="#000000" points="2209.22,-540 2061.22,-540 2061.22,-504 2215.22,-504 2215.22,-534 2209.22,-540"/>
<polyline fill="none" stroke="#000000" points="2209.22,-540 2209.22,-534 "/>
<polyline fill="none" stroke="#000000" points="2215.22,-534 2209.22,-534 "/>
<text text-anchor="middle" x="2138.22" y="-518.3" font-family="Times,serif" font-size="14.00" fill="#000000">var.my_db_address</text>
</g>
<!-- [root] meta.count&#45;boundary (EachMode fixup) -->
<g id="node31" class="node">
<title>[root] meta.count&#45;boundary (EachMode fixup)</title>
<ellipse fill="none" stroke="#000000" cx="1901.22" cy="-594" rx="224.4604" ry="18"/>
<text text-anchor="middle" x="1901.22" y="-590.3" font-family="Times,serif" font-size="14.00" fill="#000000">[root] meta.count&#45;boundary (EachMode fixup)</text>
</g>
<!-- [root] meta.count&#45;boundary (EachMode fixup)&#45;&gt;[root] aws_elb.hw_wp_elb (expand) -->
<g id="edge47" class="edge">
<title>[root] meta.count&#45;boundary (EachMode fixup)&#45;&gt;[root] aws_elb.hw_wp_elb (expand)</title>
<path fill="none" stroke="#000000" d="M1758.7387,-580.0845C1671.9283,-570.8698 1558.5876,-557.5335 1448.7751,-540.0166"/>
<polygon fill="#000000" stroke="#000000" points="1449.2717,-536.5516 1438.8428,-538.4191 1448.1601,-543.4628 1449.2717,-536.5516"/>
</g>
<!-- [root] meta.count&#45;boundary (EachMode fixup)&#45;&gt;[root] aws_route_table_association.subnet1 (expand) -->
<g id="edge48" class="edge">
<title>[root] meta.count&#45;boundary (EachMode fixup)&#45;&gt;[root] aws_route_table_association.subnet1 (expand)</title>
<path fill="none" stroke="#000000" d="M1829.6502,-576.937C1786.1811,-566.5735 1730.435,-553.283 1684.6621,-542.3703"/>
<polygon fill="#000000" stroke="#000000" points="1685.2953,-538.9232 1674.7562,-540.0086 1683.6719,-545.7324 1685.2953,-538.9232"/>
</g>
<!-- [root] meta.count&#45;boundary (EachMode fixup)&#45;&gt;[root] aws_route_table_association.subnet2 (expand) -->
<g id="edge49" class="edge">
<title>[root] meta.count&#45;boundary (EachMode fixup)&#45;&gt;[root] aws_route_table_association.subnet2 (expand)</title>
<path fill="none" stroke="#000000" d="M1901.22,-575.8314C1901.22,-568.131 1901.22,-558.9743 1901.22,-550.4166"/>
<polygon fill="#000000" stroke="#000000" points="1904.7201,-550.4132 1901.22,-540.4133 1897.7201,-550.4133 1904.7201,-550.4132"/>
</g>
<!-- [root] meta.count&#45;boundary (EachMode fixup)&#45;&gt;[root] var.my_db_address -->
<g id="edge50" class="edge">
<title>[root] meta.count&#45;boundary (EachMode fixup)&#45;&gt;[root] var.my_db_address</title>
<path fill="none" stroke="#000000" d="M1958.5911,-576.5708C1991.8998,-566.4517 2034.082,-553.6369 2069.1982,-542.9686"/>
<polygon fill="#000000" stroke="#000000" points="2070.3514,-546.2763 2078.9022,-540.0206 2068.3166,-539.5786 2070.3514,-546.2763"/>
</g>
<!-- [root] provider[&quot;registry.terraform.io/hashicorp/aws&quot;] (close) -->
<g id="node32" class="node">
<title>[root] provider[&quot;registry.terraform.io/hashicorp/aws&quot;] (close)</title>
<ellipse fill="none" stroke="#000000" cx="1365.22" cy="-594" rx="293.548" ry="18"/>
<text text-anchor="middle" x="1365.22" y="-590.3" font-family="Times,serif" font-size="14.00" fill="#000000">[root] provider[&quot;registry.terraform.io/hashicorp/aws&quot;] (close)</text>
</g>
<!-- [root] provider[&quot;registry.terraform.io/hashicorp/aws&quot;] (close)&#45;&gt;[root] aws_elb.hw_wp_elb (expand) -->
<g id="edge51" class="edge">
<title>[root] provider[&quot;registry.terraform.io/hashicorp/aws&quot;] (close)&#45;&gt;[root] aws_elb.hw_wp_elb (expand)</title>
<path fill="none" stroke="#000000" d="M1363.9583,-575.8314C1363.4235,-568.131 1362.7876,-558.9743 1362.1934,-550.4166"/>
<polygon fill="#000000" stroke="#000000" points="1365.6831,-550.1467 1361.4987,-540.4133 1358.7,-550.6317 1365.6831,-550.1467"/>
</g>
<!-- [root] provider[&quot;registry.terraform.io/hashicorp/aws&quot;] (close)&#45;&gt;[root] aws_route_table_association.subnet1 (expand) -->
<g id="edge52" class="edge">
<title>[root] provider[&quot;registry.terraform.io/hashicorp/aws&quot;] (close)&#45;&gt;[root] aws_route_table_association.subnet1 (expand)</title>
<path fill="none" stroke="#000000" d="M1422.7625,-576.2946C1455.4012,-566.2519 1496.4475,-553.6223 1530.7372,-543.0716"/>
<polygon fill="#000000" stroke="#000000" points="1532.1511,-546.2986 1540.6796,-540.0124 1530.0924,-539.6081 1532.1511,-546.2986"/>
</g>
<!-- [root] provider[&quot;registry.terraform.io/hashicorp/aws&quot;] (close)&#45;&gt;[root] aws_route_table_association.subnet2 (expand) -->
<g id="edge53" class="edge">
<title>[root] provider[&quot;registry.terraform.io/hashicorp/aws&quot;] (close)&#45;&gt;[root] aws_route_table_association.subnet2 (expand)</title>
<path fill="none" stroke="#000000" d="M1487.1819,-577.6171C1567.4146,-566.8395 1672.7867,-552.6851 1757.149,-541.3528"/>
<polygon fill="#000000" stroke="#000000" points="1757.623,-544.8207 1767.068,-540.0204 1756.6911,-537.883 1757.623,-544.8207"/>
</g>
<!-- [root] root -->
<g id="node33" class="node">
<title>[root] root</title>
<ellipse fill="none" stroke="#000000" cx="1633.22" cy="-666" rx="58.4896" ry="18"/>
<text text-anchor="middle" x="1633.22" y="-662.3" font-family="Times,serif" font-size="14.00" fill="#000000">[root] root</text>
</g>
<!-- [root] root&#45;&gt;[root] meta.count&#45;boundary (EachMode fixup) -->
<g id="edge55" class="edge">
<title>[root] root&#45;&gt;[root] meta.count&#45;boundary (EachMode fixup)</title>
<path fill="none" stroke="#000000" d="M1677.4747,-654.1107C1718.0886,-643.1995 1779.0589,-626.8194 1827.1011,-613.9125"/>
<polygon fill="#000000" stroke="#000000" points="1828.0861,-617.2721 1836.8355,-611.2973 1826.2699,-610.5118 1828.0861,-617.2721"/>
</g>
<!-- [root] root&#45;&gt;[root] provider[&quot;registry.terraform.io/hashicorp/aws&quot;] (close) -->
<g id="edge56" class="edge">
<title>[root] root&#45;&gt;[root] provider[&quot;registry.terraform.io/hashicorp/aws&quot;] (close)</title>
<path fill="none" stroke="#000000" d="M1588.9652,-654.1107C1548.6295,-643.2742 1488.2153,-627.0435 1440.3278,-614.1782"/>
<polygon fill="#000000" stroke="#000000" points="1441.1851,-610.7845 1430.6195,-611.57 1439.3689,-617.5448 1441.1851,-610.7845"/>
</g>
</g>
</svg>
